<svg width="512" height="512" viewBox="0 0 512 512" fill="none" xmlns="http://www.w3.org/2000/svg">
<path d="M153.412 137.647C153.403 128.399 160.919 120.867 170.167 120.857C179.424 120.857 186.948 128.374 186.957 137.612L187.073 249.94L153.529 249.975L153.412 137.647Z" fill="url(#paint0_linear_9682_4699)"/>
<path d="M192.997 250.868L198.585 153.815C199.11 144.708 206.657 137.573 215.768 137.573C216.103 137.573 216.439 137.583 216.779 137.602C226.264 138.148 233.537 146.309 232.991 155.795L227.402 252.848L192.997 250.868Z" fill="url(#paint1_linear_9682_4699)"/>
<path d="M142.122 158.094L150.321 249.413L144.922 249.898C125.926 251.603 111.909 268.386 113.614 287.382L102.326 161.667C101.34 150.679 109.447 140.966 120.434 139.98C131.428 138.994 141.135 147.107 142.122 158.094V158.094Z" fill="url(#paint2_linear_9682_4699)"/>
<path d="M281.424 177.701L264.713 289.491C267.533 270.628 254.526 253.05 235.664 250.23L230.303 249.429L241.908 171.794C243.54 160.878 253.707 153.356 264.623 154.987C275.533 156.618 283.055 166.785 281.424 177.701V177.701Z" fill="url(#paint3_linear_9682_4699)"/>
<path d="M258.806 362.761C255.117 368.722 253.18 375.612 253.191 382.627L253.208 403.773C253.213 407.365 250.635 410.283 247.439 410.289L157.172 410.379L157.167 403.121C157.144 384.014 149.54 365.701 136.015 352.211L134.888 351.084C136.458 330.611 129.415 309.608 113.764 293.957L113.084 293.277L113.073 281.418C113.056 262.969 127.998 247.999 146.441 247.982L234.233 247.892C252.676 247.874 267.652 262.811 267.668 281.259L267.725 331.269C267.736 342.823 264.467 353.611 258.806 362.761V362.761Z" fill="url(#paint4_linear_9682_4699)"/>
<path d="M267.687 298.596C251.895 287.265 228.18 280.077 201.68 280.106C168.225 280.14 139.238 291.665 125.022 308.46C121.964 303.286 118.21 298.402 113.766 293.958L113.087 293.279L113.076 281.418C113.058 262.968 128 247.998 146.444 247.981L234.234 247.896C252.678 247.878 267.653 262.814 267.671 281.259L267.687 298.596Z" fill="url(#paint5_linear_9682_4699)"/>
<path d="M204.5 384.527C211.167 379.108 215.425 370.842 215.416 361.579C215.396 342.848 207.786 325.9 195.502 313.636C183.219 301.378 166.255 293.802 147.523 293.822H147.518C143.726 293.826 139.059 295.44 134.849 297.36C127.511 300.705 118.859 299.063 113.151 293.367L100.077 280.32C88.7673 269.033 70.4433 269.052 59.1568 280.362C56.163 283.362 54.6681 287.293 54.6729 291.216C54.6768 295.146 56.1796 299.073 59.1797 302.067L127.443 370.191C127.479 370.232 127.514 370.267 127.55 370.308C127.567 370.332 127.585 370.356 127.603 370.373C133.48 377.193 136.675 385.915 136.684 394.918L136.694 403.897C136.698 407.489 139.291 410.401 142.482 410.398L204.499 410.307V384.527H204.5Z" fill="url(#paint6_linear_9682_4699)"/>
<path d="M265.045 349.047H135.004C134.683 355.626 133.482 362.17 131.386 368.483C130.446 371.313 130.751 374.382 132.167 377.006C135.115 382.471 136.676 388.625 136.684 394.917L136.695 403.897C136.695 407.49 139.291 410.402 142.48 410.396L157.172 410.375V410.38L247.439 410.289C250.635 410.283 253.213 407.365 253.208 403.773L253.191 382.627C253.18 375.612 255.117 368.722 258.806 362.761C261.433 358.515 263.538 353.912 265.045 349.047V349.047Z" fill="url(#paint7_linear_9682_4699)"/>
<path d="M267.725 331.27L267.669 281.26C267.652 262.812 252.676 247.875 234.233 247.893L222.036 247.905L183.448 286.493L259.146 362.191C264.594 353.162 267.736 342.585 267.725 331.27V331.27Z" fill="url(#paint8_linear_9682_4699)"/>
<path d="M324.598 137.647C324.589 128.399 332.105 120.867 341.353 120.857C350.61 120.857 358.134 128.374 358.143 137.612L358.259 249.94L324.715 249.975L324.598 137.647Z" fill="url(#paint9_linear_9682_4699)"/>
<path d="M318.675 250.868L313.087 153.815C312.562 144.708 305.015 137.573 295.904 137.573C295.569 137.573 295.233 137.583 294.894 137.602C285.408 138.148 278.136 146.309 278.682 155.795L284.27 252.848L318.675 250.868Z" fill="url(#paint10_linear_9682_4699)"/>
<path d="M369.55 158.094L361.351 249.414L366.749 249.898C385.745 251.604 399.763 268.387 398.057 287.382L409.345 161.666C410.331 150.679 402.224 140.966 391.237 139.979C380.244 138.994 370.537 147.108 369.55 158.094V158.094Z" fill="url(#paint11_linear_9682_4699)"/>
<path d="M369.55 158.094L361.351 249.414L366.749 249.898C385.745 251.604 399.763 268.387 398.057 287.382L409.345 161.666C410.331 150.679 402.224 140.966 391.237 139.979C380.244 138.994 370.537 147.108 369.55 158.094V158.094Z" fill="url(#paint12_linear_9682_4699)"/>
<path d="M230.248 177.701L246.959 289.491C244.139 270.628 257.146 253.05 276.008 250.23L281.369 249.429L269.764 171.794C268.132 160.878 257.965 153.356 247.049 154.987C236.14 156.618 228.617 166.785 230.248 177.701V177.701Z" fill="url(#paint13_linear_9682_4699)"/>
<path d="M252.866 362.761C256.555 368.722 258.492 375.612 258.481 382.627L258.465 403.773C258.459 407.365 261.037 410.283 264.233 410.289L354.5 410.379L354.506 403.121C354.528 384.014 362.132 365.701 375.657 352.211L376.784 351.084C375.214 330.611 382.257 309.608 397.908 293.957L398.588 293.277L398.599 281.418C398.616 262.969 383.674 247.999 365.231 247.982L277.44 247.892C258.997 247.874 244.021 262.811 244.005 281.259L243.948 331.269C243.936 342.823 247.205 353.611 252.866 362.761V362.761Z" fill="url(#paint14_linear_9682_4699)"/>
<path d="M243.985 298.596C259.777 287.265 283.492 280.077 309.992 280.106C343.447 280.14 372.433 291.665 386.65 308.46C389.708 303.286 393.462 298.402 397.906 293.958L398.585 293.279L398.596 281.418C398.614 262.968 383.672 247.998 365.228 247.981L277.438 247.896C258.994 247.878 244.018 262.814 244.001 281.259L243.985 298.596Z" fill="url(#paint15_linear_9682_4699)"/>
<path d="M307.172 384.527C300.505 379.108 296.247 370.842 296.256 361.579C296.276 342.848 303.886 325.9 316.17 313.636C328.454 301.378 345.417 293.802 364.149 293.822H364.154C367.946 293.826 372.613 295.44 376.823 297.36C384.161 300.705 392.813 299.063 398.521 293.367L411.595 280.32C422.905 269.033 441.229 269.052 452.515 280.362C455.509 283.362 457.004 287.293 457 291.216C456.996 295.146 455.493 299.073 452.493 302.067L384.229 370.191C384.194 370.232 384.158 370.267 384.123 370.308C384.106 370.332 384.087 370.356 384.07 370.373C378.193 377.193 374.998 385.915 374.988 394.918L374.979 403.897C374.975 407.489 372.382 410.401 369.191 410.398L307.174 410.307V384.527H307.172Z" fill="url(#paint16_linear_9682_4699)"/>
<path d="M246.626 349.047H376.668C376.989 355.626 378.19 362.17 380.286 368.483C381.226 371.313 380.921 374.382 379.505 377.006C376.557 382.471 374.996 388.625 374.988 394.917L374.976 403.897C374.976 407.49 372.381 410.402 369.192 410.396L354.5 410.375V410.38L264.233 410.289C261.037 410.283 258.459 407.365 258.464 403.773L258.481 382.627C258.492 375.612 256.554 368.722 252.866 362.761C250.239 358.515 248.134 353.912 246.626 349.047V349.047Z" fill="url(#paint17_linear_9682_4699)"/>
<path d="M411.596 280.319L398.522 293.367C398.428 293.461 398.326 293.544 398.23 293.636L398.587 293.279L398.598 281.42C398.616 262.971 383.674 248.001 365.231 247.984L277.44 247.894C258.997 247.876 244.021 262.813 244.004 281.261L243.947 331.271C243.941 337.795 244.982 344.073 246.907 349.952L307.289 410.334L354.499 410.381V410.377L369.191 410.398C372.383 410.401 374.976 407.489 374.979 403.897L374.988 394.918C374.998 385.915 378.193 377.193 384.07 370.373C384.088 370.355 384.105 370.332 384.123 370.308C384.158 370.267 384.194 370.232 384.229 370.191L452.493 302.067C455.493 299.073 456.996 295.146 457 291.216C457.004 287.293 455.509 283.362 452.515 280.362C441.229 269.052 422.905 269.033 411.596 280.319V280.319Z" fill="url(#paint18_linear_9682_4699)"/>
<path d="M255.836 325.846C251.273 325.846 246.703 324.83 242.62 322.908C230.28 317.1 206.181 304.647 183.448 286.493C153.876 262.876 136.348 237.526 131.35 211.148C127.468 190.657 133.011 169.738 146.556 153.756C159.1 138.955 176.877 130.305 196.61 129.401C197.77 129.348 198.946 129.32 200.104 129.32C218.592 129.32 236.046 136.02 249.249 148.187C251.634 150.385 253.833 152.717 255.835 155.165C257.839 152.717 260.038 150.385 262.423 148.187C275.625 136.021 293.08 129.321 311.569 129.321C312.726 129.321 313.902 129.348 315.062 129.402C334.796 130.306 352.572 138.956 365.117 153.758C378.662 169.74 384.204 190.659 380.321 211.15C375.324 237.527 357.795 262.877 328.223 286.493C305.492 304.647 281.393 317.101 269.052 322.909C264.969 324.83 260.399 325.846 255.836 325.846V325.846Z" fill="url(#paint19_linear_9682_4699)"/>
<path d="M249.249 148.188C236.045 136.022 218.592 129.321 200.104 129.321C198.946 129.321 197.77 129.348 196.61 129.402C176.877 130.307 159.101 138.956 146.556 153.757C133.011 169.739 127.469 190.657 131.351 211.149C134.109 225.705 140.689 239.945 150.996 253.756L255.837 155.166C253.832 152.718 251.634 150.386 249.249 148.188Z" fill="url(#paint20_linear_9682_4699)"/>
<path d="M270.002 186.121L214.072 242.051L285.831 314.373C298.148 307.652 313.472 298.274 328.225 286.492C336.776 279.663 344.314 272.688 350.84 265.586L270.002 186.121Z" fill="url(#paint21_linear_9682_4699)"/>
<path d="M294.156 212.486H271.758V190.088C271.758 186.971 269.231 184.443 266.113 184.443H246.083C242.965 184.443 240.438 186.971 240.438 190.088V212.486H218.04C214.922 212.486 212.395 215.014 212.395 218.131V238.162C212.395 241.28 214.922 243.807 218.04 243.807H240.438V266.205C240.438 269.323 242.965 271.85 246.083 271.85H266.113C269.231 271.85 271.758 269.323 271.758 266.205V243.807H294.156C297.274 243.807 299.801 241.28 299.801 238.162V218.131C299.801 215.014 297.274 212.486 294.156 212.486Z" fill="url(#paint22_linear_9682_4699)"/>
<path d="M212.396 218.133V238.164C212.396 241.281 214.923 243.809 218.041 243.809H240.439V212.488H218.041C214.923 212.488 212.396 215.015 212.396 218.133Z" fill="url(#paint23_linear_9682_4699)"/>
<path d="M294.156 212.487H271.758V243.808H294.156C297.274 243.808 299.801 241.28 299.801 238.163V218.132C299.801 215.015 297.274 212.487 294.156 212.487Z" fill="url(#paint24_linear_9682_4699)"/>
<path d="M294.156 212.487H271.758V243.808H294.156C297.274 243.808 299.801 241.28 299.801 238.163V218.132C299.801 215.015 297.274 212.487 294.156 212.487Z" fill="url(#paint25_linear_9682_4699)"/>
<path d="M246.083 271.85H266.114C269.231 271.85 271.759 269.322 271.759 266.205V243.807H240.438V266.205C240.438 269.322 242.966 271.85 246.083 271.85V271.85Z" fill="url(#paint26_linear_9682_4699)"/>
<path d="M255.836 25.6016C252.575 25.6016 249.932 28.2451 249.932 31.5063V39.8329C249.932 43.0941 252.575 45.7376 255.836 45.7376C259.098 45.7376 261.741 43.0941 261.741 39.8329V31.5063C261.741 28.2451 259.098 25.6016 255.836 25.6016V25.6016Z" fill="url(#paint27_linear_9682_4699)"/>
<path d="M451.095 220.859H442.768C439.507 220.859 436.863 223.503 436.863 226.764C436.863 230.025 439.507 232.669 442.768 232.669H451.095C454.356 232.669 456.999 230.025 456.999 226.764C456.999 223.503 454.356 220.859 451.095 220.859Z" fill="url(#paint28_linear_9682_4699)"/>
<path d="M74.8097 226.764C74.8097 223.503 72.1662 220.859 68.905 220.859H60.5776C57.3164 220.859 54.6729 223.503 54.6729 226.764C54.6729 230.025 57.3164 232.669 60.5776 232.669H68.9042C72.1662 232.669 74.8097 230.025 74.8097 226.764Z" fill="url(#paint29_linear_9682_4699)"/>
<path d="M389.729 84.521L383.841 90.4092C381.534 92.7159 381.534 96.4535 383.841 98.7602C386.147 101.067 389.885 101.067 392.192 98.7602L398.08 92.8721C400.386 90.5654 400.386 86.8277 398.08 84.521C395.774 82.2143 392.036 82.2143 389.729 84.521Z" fill="url(#paint30_linear_9682_4699)"/>
<path d="M121.944 84.5214C119.638 82.2155 115.9 82.2155 113.593 84.5214C111.286 86.8273 111.287 90.5658 113.593 92.8724L119.481 98.7606C121.787 101.067 125.526 101.067 127.832 98.7606C130.139 96.4547 130.139 92.7162 127.832 90.4096L121.944 84.5214Z" fill="url(#paint31_linear_9682_4699)"/>
<path d="M331.811 55.8665L334.951 48.1544C336.181 45.1338 334.731 41.6888 331.71 40.4582C328.689 39.2283 325.244 40.6791 324.014 43.6997L320.873 51.4117C319.643 54.4323 321.094 57.8773 324.115 59.108C327.136 60.3386 330.581 58.8871 331.811 55.8665Z" fill="url(#paint32_linear_9682_4699)"/>
<path d="M72.7719 158.585L80.484 161.726C83.5046 162.956 86.9496 161.505 88.1802 158.484C89.4101 155.464 87.9594 152.019 84.9387 150.788L77.2267 147.648C74.2061 146.418 70.7611 147.869 69.5304 150.889C68.3006 153.91 69.7513 157.356 72.7719 158.585V158.585Z" fill="url(#paint33_linear_9682_4699)"/>
<path d="M430.402 159.644L438.076 156.412C441.082 155.146 442.492 151.684 441.226 148.678C439.96 145.672 436.498 144.262 433.492 145.528L425.818 148.76C422.812 150.026 421.402 153.489 422.668 156.494C423.934 159.501 427.395 160.91 430.402 159.644Z" fill="url(#paint34_linear_9682_4699)"/>
<path d="M185.566 59.9331C188.571 58.6669 189.982 55.2046 188.716 52.199L185.484 44.5248C184.217 41.5192 180.755 40.1087 177.749 41.3748C174.744 42.6409 173.333 46.1033 174.599 49.1089L177.831 56.7831C179.098 59.7887 182.56 61.1992 185.566 59.9331Z" fill="url(#paint35_linear_9682_4699)"/>
<defs>
<linearGradient id="paint0_linear_9682_4699" x1="160.069" y1="185.375" x2="187.016" y2="185.348" gradientUnits="userSpaceOnUse">
<stop stop-color="#FFDFCF"/>
<stop offset="1" stop-color="#FFA78F"/>
</linearGradient>
<linearGradient id="paint1_linear_9682_4699" x1="197.59" y1="192.648" x2="224.646" y2="194.22" gradientUnits="userSpaceOnUse">
<stop stop-color="#FFDFCF"/>
<stop offset="1" stop-color="#FFA78F"/>
</linearGradient>
<linearGradient id="paint2_linear_9682_4699" x1="112.389" y1="213.443" x2="148.646" y2="210.203" gradientUnits="userSpaceOnUse">
<stop stop-color="#FFDFCF"/>
<stop offset="1" stop-color="#FFA78F"/>
</linearGradient>
<linearGradient id="paint3_linear_9682_4699" x1="239.203" y1="217.08" x2="264.76" y2="222.137" gradientUnits="userSpaceOnUse">
<stop stop-color="#FFDFCF"/>
<stop offset="1" stop-color="#FFA78F"/>
</linearGradient>
<linearGradient id="paint4_linear_9682_4699" x1="180.971" y1="257.489" x2="219.195" y2="367.025" gradientUnits="userSpaceOnUse">
<stop stop-color="#FFDFCF"/>
<stop offset="1" stop-color="#FFA78F"/>
</linearGradient>
<linearGradient id="paint5_linear_9682_4699" x1="192.294" y1="272.319" x2="183.736" y2="347.055" gradientUnits="userSpaceOnUse">
<stop stop-color="#F89580" stop-opacity="0"/>
<stop offset="0.9972" stop-color="#C5715A"/>
</linearGradient>
<linearGradient id="paint6_linear_9682_4699" x1="130.718" y1="306.599" x2="152.397" y2="388.751" gradientUnits="userSpaceOnUse">
<stop stop-color="#FFDFCF"/>
<stop offset="1" stop-color="#FFA78F"/>
</linearGradient>
<linearGradient id="paint7_linear_9682_4699" x1="197.945" y1="381.783" x2="197.945" y2="403.97" gradientUnits="userSpaceOnUse">
<stop stop-color="#F89580" stop-opacity="0"/>
<stop offset="0.9972" stop-color="#C5715A" stop-opacity="0.5"/>
</linearGradient>
<linearGradient id="paint8_linear_9682_4699" x1="223.215" y1="354.374" x2="225.582" y2="309.803" gradientUnits="userSpaceOnUse">
<stop stop-color="#F89580" stop-opacity="0"/>
<stop offset="0.9972" stop-color="#C5715A"/>
</linearGradient>
<linearGradient id="paint9_linear_9682_4699" x1="331.255" y1="185.38" x2="358.202" y2="185.353" gradientUnits="userSpaceOnUse">
<stop stop-color="#FFDFCF"/>
<stop offset="1" stop-color="#FFA78F"/>
</linearGradient>
<linearGradient id="paint10_linear_9682_4699" x1="299.107" y1="195.079" x2="336.457" y2="194.538" gradientUnits="userSpaceOnUse">
<stop stop-color="#FFDFCF"/>
<stop offset="1" stop-color="#FFA78F"/>
</linearGradient>
<linearGradient id="paint11_linear_9682_4699" x1="375.915" y1="209.502" x2="410.558" y2="217.081" gradientUnits="userSpaceOnUse">
<stop stop-color="#FFDFCF"/>
<stop offset="1" stop-color="#FFA78F"/>
</linearGradient>
<linearGradient id="paint12_linear_9682_4699" x1="399.604" y1="212.573" x2="357.004" y2="219.41" gradientUnits="userSpaceOnUse">
<stop stop-color="#F89580" stop-opacity="0"/>
<stop offset="0.9972" stop-color="#C5715A"/>
</linearGradient>
<linearGradient id="paint13_linear_9682_4699" x1="256.746" y1="222.534" x2="288.683" y2="224.158" gradientUnits="userSpaceOnUse">
<stop stop-color="#FFDFCF"/>
<stop offset="1" stop-color="#FFA78F"/>
</linearGradient>
<linearGradient id="paint14_linear_9682_4699" x1="307.197" y1="282.071" x2="336.969" y2="363.267" gradientUnits="userSpaceOnUse">
<stop stop-color="#FFDFCF"/>
<stop offset="1" stop-color="#FFA78F"/>
</linearGradient>
<linearGradient id="paint15_linear_9682_4699" x1="319.378" y1="272.319" x2="327.936" y2="347.055" gradientUnits="userSpaceOnUse">
<stop stop-color="#F89580" stop-opacity="0"/>
<stop offset="0.9972" stop-color="#C5715A"/>
</linearGradient>
<linearGradient id="paint16_linear_9682_4699" x1="364.26" y1="281.731" x2="390.783" y2="382.955" gradientUnits="userSpaceOnUse">
<stop stop-color="#FFDFCF"/>
<stop offset="1" stop-color="#FFA78F"/>
</linearGradient>
<linearGradient id="paint17_linear_9682_4699" x1="313.727" y1="381.783" x2="313.727" y2="403.97" gradientUnits="userSpaceOnUse">
<stop stop-color="#F89580" stop-opacity="0"/>
<stop offset="0.9972" stop-color="#C5715A" stop-opacity="0.5"/>
</linearGradient>
<linearGradient id="paint18_linear_9682_4699" x1="361.057" y1="333.225" x2="327.136" y2="278.004" gradientUnits="userSpaceOnUse">
<stop stop-color="#F89580" stop-opacity="0"/>
<stop offset="0.9972" stop-color="#C5715A"/>
</linearGradient>
<linearGradient id="paint19_linear_9682_4699" x1="235.731" y1="160.24" x2="279.119" y2="244.65" gradientUnits="userSpaceOnUse">
<stop stop-color="#B699FE"/>
<stop offset="1" stop-color="#8352FE"/>
</linearGradient>
<linearGradient id="paint20_linear_9682_4699" x1="188.918" y1="175.94" x2="256.722" y2="131.916" gradientUnits="userSpaceOnUse">
<stop stop-color="#8352FE" stop-opacity="0"/>
<stop offset="0.3461" stop-color="#8352FE" stop-opacity="0.3"/>
<stop offset="0.8036" stop-color="#8352FE" stop-opacity="0.8"/>
<stop offset="1" stop-color="#8352FE"/>
</linearGradient>
<linearGradient id="paint21_linear_9682_4699" x1="337.127" y1="308.772" x2="247.589" y2="219.233" gradientUnits="userSpaceOnUse">
<stop stop-color="#8352FE" stop-opacity="0"/>
<stop offset="0.3461" stop-color="#8352FE" stop-opacity="0.3"/>
<stop offset="0.8036" stop-color="#8352FE" stop-opacity="0.8"/>
<stop offset="1" stop-color="#8352FE"/>
</linearGradient>
<linearGradient id="paint22_linear_9682_4699" x1="229.391" y1="201.439" x2="277.212" y2="249.261" gradientUnits="userSpaceOnUse">
<stop stop-color="#EAF9FA"/>
<stop offset="1" stop-color="#B3DAFE"/>
</linearGradient>
<linearGradient id="paint23_linear_9682_4699" x1="226.417" y1="224.627" x2="226.417" y2="247.455" gradientUnits="userSpaceOnUse">
<stop stop-color="#7BACDF" stop-opacity="0"/>
<stop offset="1" stop-color="#7BACDF"/>
</linearGradient>
<linearGradient id="paint24_linear_9682_4699" x1="286.872" y1="228.148" x2="302.014" y2="228.148" gradientUnits="userSpaceOnUse">
<stop stop-color="#7BACDF" stop-opacity="0"/>
<stop offset="1" stop-color="#7BACDF"/>
</linearGradient>
<linearGradient id="paint25_linear_9682_4699" x1="285.78" y1="224.627" x2="285.78" y2="247.455" gradientUnits="userSpaceOnUse">
<stop stop-color="#7BACDF" stop-opacity="0"/>
<stop offset="1" stop-color="#7BACDF"/>
</linearGradient>
<linearGradient id="paint26_linear_9682_4699" x1="256.098" y1="262.016" x2="256.098" y2="271.667" gradientUnits="userSpaceOnUse">
<stop stop-color="#7BACDF" stop-opacity="0"/>
<stop offset="1" stop-color="#7BACDF"/>
</linearGradient>
<linearGradient id="paint27_linear_9682_4699" x1="239.116" y1="32.5066" x2="277.958" y2="39.8549" gradientUnits="userSpaceOnUse">
<stop stop-color="#A4EBEC"/>
<stop offset="1" stop-color="#3FD5D7"/>
</linearGradient>
<linearGradient id="paint28_linear_9682_4699" x1="421.908" y1="222.031" x2="480.037" y2="233.028" gradientUnits="userSpaceOnUse">
<stop stop-color="#A4EBEC"/>
<stop offset="1" stop-color="#3FD5D7"/>
</linearGradient>
<linearGradient id="paint29_linear_9682_4699" x1="39.7181" y1="222.03" x2="97.8472" y2="233.027" gradientUnits="userSpaceOnUse">
<stop stop-color="#A4EBEC"/>
<stop offset="1" stop-color="#3FD5D7"/>
</linearGradient>
<linearGradient id="paint30_linear_9682_4699" x1="370.308" y1="87.7325" x2="418.285" y2="96.8093" gradientUnits="userSpaceOnUse">
<stop stop-color="#A4EBEC"/>
<stop offset="1" stop-color="#3FD5D7"/>
</linearGradient>
<linearGradient id="paint31_linear_9682_4699" x1="97.3201" y1="87.2146" x2="151.661" y2="97.496" gradientUnits="userSpaceOnUse">
<stop stop-color="#A4EBEC"/>
<stop offset="1" stop-color="#3FD5D7"/>
</linearGradient>
<linearGradient id="paint32_linear_9682_4699" x1="311.061" y1="46.5956" x2="350.208" y2="54.0016" gradientUnits="userSpaceOnUse">
<stop stop-color="#A4EBEC"/>
<stop offset="1" stop-color="#3FD5D7"/>
</linearGradient>
<linearGradient id="paint33_linear_9682_4699" x1="53.8578" y1="149.958" x2="111.928" y2="160.944" gradientUnits="userSpaceOnUse">
<stop stop-color="#A4EBEC"/>
<stop offset="1" stop-color="#3FD5D7"/>
</linearGradient>
<linearGradient id="paint34_linear_9682_4699" x1="408.48" y1="148.146" x2="462.994" y2="158.46" gradientUnits="userSpaceOnUse">
<stop stop-color="#A4EBEC"/>
<stop offset="1" stop-color="#3FD5D7"/>
</linearGradient>
<linearGradient id="paint35_linear_9682_4699" x1="161.114" y1="46.7676" x2="208.835" y2="55.7962" gradientUnits="userSpaceOnUse">
<stop stop-color="#A4EBEC"/>
<stop offset="1" stop-color="#3FD5D7"/>
</linearGradient>
</defs>
</svg>
